<svg width="150" height="64" viewBox="0 0 150 64" xmlns="http://www.w3.org/2000/svg"><path d="M30.72 25.504c.81 0 1.579.155 2.304.464.725.31 1.36.73 1.904 1.264a6.014 6.014 0 0 1 1.296 1.888c.32.725.48 1.493.48 2.304 0 .81-.155 1.579-.464 2.304a5.8 5.8 0 0 1-1.28 1.888 6.174 6.174 0 0 1-1.888 1.264 5.777 5.777 0 0 1-2.32.464H24.032c-.17 0-.256-.085-.256-.256V25.76c0-.17.085-.256.256-.256H30.72zm0 10.56c.64 0 1.243-.123 1.808-.368a4.91 4.91 0 0 0 1.488-.992 4.578 4.578 0 0 0 1.376-3.28c0-.64-.123-1.243-.368-1.808a4.71 4.71 0 0 0-.992-1.472 4.71 4.71 0 0 0-1.472-.992 4.492 4.492 0 0 0-1.808-.368h-5.344c-.213 0-.32.107-.32.32v8.64c0 .213.107.32.32.32h5.312zm.032-14.368a9.45 9.45 0 0 1 3.792.768 10.04 10.04 0 0 1 3.104 2.08 9.71 9.71 0 0 1 2.096 3.088 9.45 9.45 0 0 1 .768 3.792 9.134 9.134 0 0 1-.704 3.504 10.958 10.958 0 0 1-1.952 3.12 9.378 9.378 0 0 1-3.232 2.32 9.701 9.701 0 0 1-3.872.784h-5.536c-.085 0-.128.053-.128.16V44c0 .021-.021.032-.064.032h-4.992c-.043 0-.064-.01-.064-.032V21.728c0-.021.021-.032.064-.032h10.72zm0 18.208c1.28 0 2.448-.25 3.504-.752a8.514 8.514 0 0 0 2.688-1.968 9.082 9.082 0 0 0 1.712-2.72 8.05 8.05 0 0 0 .608-3.04 8.132 8.132 0 0 0-.672-3.296 8.686 8.686 0 0 0-1.824-2.688 8.414 8.414 0 0 0-2.704-1.808 8.419 8.419 0 0 0-3.312-.656h-9.12c-.277 0-.416.139-.416.416v19.072c0 .213.107.32.32.32h1.92c.213 0 .32-.107.32-.32v-2.272c0-.192.096-.288.288-.288H30.752zM54.976 25.44c.81 0 1.579.155 2.304.464.725.31 1.355.73 1.888 1.264a5.928 5.928 0 0 1 1.264 1.888c.31.725.464 1.493.464 2.304 0 .875-.16 1.68-.48 2.416a5.78 5.78 0 0 1-1.296 1.888 5.815 5.815 0 0 1-1.904 1.216 6.186 6.186 0 0 1-2.304.432h-7.488c-.235 0-.352-.117-.352-.352V25.792c0-.235.117-.352.352-.352H54.976zm-6.336 1.248c-.192 0-.288.096-.288.288v8.768c0 .17.096.256.288.256h6.304c.64 0 1.243-.123 1.808-.368a4.797 4.797 0 0 0 2.512-2.464 4.332 4.332 0 0 0 .384-1.808c0-.64-.123-1.243-.368-1.808a4.767 4.767 0 0 0-2.496-2.496 4.492 4.492 0 0 0-1.808-.368H48.64zm6.336-5.12c1.344 0 2.613.256 3.808.768a9.852 9.852 0 0 1 3.12 2.096A9.852 9.852 0 0 1 64 27.552a9.565 9.565 0 0 1 .768 3.808c0 1.13-.192 2.224-.576 3.28a10.083 10.083 0 0 1-1.632 2.896c-1.152 1.365-2.528 2.357-4.128 2.976l1.344 3.52h-5.504l-1.024-2.72c-.043-.128-.117-.192-.224-.192H48.64c-.192 0-.288.096-.288.288v2.624h-5.12V21.568h11.744zM44.512 42.304c0 .277.139.416.416.416h1.728c.277 0 .416-.139.416-.416v-2.112c0-.235.117-.352.352-.352h6.4c.17 0 .288.085.352.256l.864 2.368c.064.17.203.256.416.256h1.856c.15 0 .261-.059.336-.176a.412.412 0 0 0 .048-.368l-.864-2.272c-.043-.17.01-.277.16-.32a7.998 7.998 0 0 0 2.56-1.088A8.507 8.507 0 0 0 61.6 36.64a8.821 8.821 0 0 0 1.36-2.416c.33-.885.496-1.83.496-2.832a8.245 8.245 0 0 0-.672-3.312 8.634 8.634 0 0 0-1.824-2.704 8.634 8.634 0 0 0-2.704-1.824 8.245 8.245 0 0 0-3.312-.672H44.896a.37.37 0 0 0-.272.112.37.37 0 0 0-.112.272v19.04zm41.984-17.376a8.747 8.747 0 0 1 1.088 3.568c.107 1.27.16 2.608.16 4.016v2.176h-.032c-.043.96-.139 1.888-.288 2.784a7.553 7.553 0 0 1-.928 2.56 7.09 7.09 0 0 1-3.36 3.008c-1.365.619-3.115.928-5.248.928-2.176 0-3.925-.31-5.248-.928a6.86 6.86 0 0 1-3.392-3.008 8.747 8.747 0 0 1-1.088-3.568 48.024 48.024 0 0 1-.16-4.016v-2.176h.032c.043-.96.144-1.888.304-2.784.16-.896.464-1.75.912-2.56a6.86 6.86 0 0 1 3.392-3.008c1.323-.619 3.072-.928 5.248-.928 2.133 0 3.883.31 5.248.928a7.09 7.09 0 0 1 3.36 3.008zm-.16 7.584c0-1.259-.048-2.475-.144-3.648-.096-1.173-.41-2.23-.944-3.168-.619-1.067-1.525-1.867-2.72-2.4-1.195-.533-2.741-.8-4.64-.8-1.92 0-3.477.267-4.672.8-1.216.555-2.123 1.355-2.72 2.4a7.028 7.028 0 0 0-.896 2.8 30.758 30.758 0 0 0-.16 3.216v.736c0 1.28.043 2.496.128 3.648a7.596 7.596 0 0 0 .928 3.168c.597 1.045 1.504 1.845 2.72 2.4 1.195.533 2.752.8 4.672.8 1.899 0 3.445-.267 4.64-.8 1.195-.533 2.101-1.333 2.72-2.4.49-.853.79-1.787.896-2.8.107-1.013.17-2.085.192-3.216v-.736zm-8.448-7.456c.917 0 1.68.059 2.288.176.608.117 1.104.272 1.488.464.384.192.677.4.88.624.203.224.368.443.496.656.363.64.576 1.435.64 2.384.064.95.096 2 .096 3.152v.032c0 1.13-.032 2.165-.096 3.104-.064.939-.277 1.717-.64 2.336a4.244 4.244 0 0 1-.496.656c-.203.224-.496.432-.88.624s-.88.347-1.488.464c-.608.117-1.37.176-2.288.176-.917 0-1.68-.059-2.288-.176-.608-.117-1.11-.272-1.504-.464-.395-.192-.693-.4-.896-.624a4.244 4.244 0 0 1-.496-.656c-.363-.64-.57-1.435-.624-2.384-.053-.95-.08-2-.08-3.152v-.032c0-1.13.027-2.165.08-3.104.053-.939.261-1.717.624-2.336.128-.213.293-.432.496-.656.203-.224.501-.432.896-.624s.896-.347 1.504-.464c.608-.117 1.37-.176 2.288-.176zm4.672 7.456c0-1.024-.021-1.99-.064-2.896-.043-.907-.213-1.616-.512-2.128a5.97 5.97 0 0 0-.24-.32c-.117-.15-.32-.293-.608-.432s-.693-.261-1.216-.368c-.523-.107-1.2-.16-2.032-.16-.853 0-1.536.053-2.048.16-.512.107-.917.23-1.216.368-.299.139-.507.283-.624.432a5.97 5.97 0 0 0-.24.32c-.299.512-.47 1.205-.512 2.08a58.71 58.71 0 0 0-.064 2.848v.032c0 1.024.021 1.99.064 2.896.043.907.213 1.616.512 2.128.043.064.123.17.24.32.117.15.325.293.624.432s.704.261 1.216.368c.512.107 1.195.16 2.048.16.832 0 1.51-.053 2.032-.16.523-.107.928-.23 1.216-.368.288-.139.49-.283.608-.432a5.97 5.97 0 0 0 .24-.32c.299-.512.47-1.205.512-2.08.043-.875.064-1.813.064-2.816v-.064zM111.296 21.6v5.12h-7.136c-.15 0-.224.075-.224.224v16.928c0 .085-.043.128-.128.128h-4.832c-.107 0-.16-.043-.16-.128V26.944c0-.15-.064-.224-.192-.224h-7.136V21.6h19.808zm-1.472 3.84c.128 0 .192-.075.192-.224v-2.144c0-.128-.064-.192-.192-.192H92.96c-.043 0-.085.021-.128.064s-.064.085-.064.128v2.176c0 .128.064.192.192.192h6.944c.128 0 .192.064.192.192v16.832c0 .17.096.256.288.256h2.016c.17 0 .256-.085.256-.256V25.632c0-.128.075-.192.224-.192h6.944zm22.976-.512a8.747 8.747 0 0 1 1.088 3.568c.107 1.27.16 2.608.16 4.016v2.176h-.032c-.043.96-.139 1.888-.288 2.784a7.553 7.553 0 0 1-.928 2.56 7.09 7.09 0 0 1-3.36 3.008c-1.365.619-3.115.928-5.248.928-2.176 0-3.925-.31-5.248-.928a6.86 6.86 0 0 1-3.392-3.008 8.747 8.747 0 0 1-1.088-3.568 48.024 48.024 0 0 1-.16-4.016v-2.176h.032c.043-.96.144-1.888.304-2.784.16-.896.464-1.75.912-2.56a6.86 6.86 0 0 1 3.392-3.008c1.323-.619 3.072-.928 5.248-.928 2.133 0 3.883.31 5.248.928a7.09 7.09 0 0 1 3.36 3.008zm-.16 7.584c0-1.259-.048-2.475-.144-3.648-.096-1.173-.41-2.23-.944-3.168-.619-1.067-1.525-1.867-2.72-2.4-1.195-.533-2.741-.8-4.64-.8-1.92 0-3.477.267-4.672.8-1.216.555-2.123 1.355-2.72 2.4a7.028 7.028 0 0 0-.896 2.8 30.758 30.758 0 0 0-.16 3.216v.736c0 1.28.043 2.496.128 3.648a7.596 7.596 0 0 0 .928 3.168c.597 1.045 1.504 1.845 2.72 2.4 1.195.533 2.752.8 4.672.8 1.899 0 3.445-.267 4.64-.8 1.195-.533 2.101-1.333 2.72-2.4.49-.853.79-1.787.896-2.8.107-1.013.17-2.085.192-3.216v-.736zm-8.448-7.456c.917 0 1.68.059 2.288.176.608.117 1.104.272 1.488.464.384.192.677.4.88.624.203.224.368.443.496.656.363.64.576 1.435.64 2.384.064.95.096 2 .096 3.152v.032c0 1.13-.032 2.165-.096 3.104-.064.939-.277 1.717-.64 2.336a4.244 4.244 0 0 1-.496.656c-.203.224-.496.432-.88.624s-.88.347-1.488.464c-.608.117-1.37.176-2.288.176-.917 0-1.68-.059-2.288-.176-.608-.117-1.11-.272-1.504-.464-.395-.192-.693-.4-.896-.624a4.244 4.244 0 0 1-.496-.656c-.363-.64-.57-1.435-.624-2.384-.053-.95-.08-2-.08-3.152v-.032c0-1.13.027-2.165.08-3.104.053-.939.261-1.717.624-2.336.128-.213.293-.432.496-.656.203-.224.501-.432.896-.624s.896-.347 1.504-.464c.608-.117 1.37-.176 2.288-.176zm4.672 7.456c0-1.024-.021-1.99-.064-2.896-.043-.907-.213-1.616-.512-2.128a5.97 5.97 0 0 0-.24-.32c-.117-.15-.32-.293-.608-.432s-.693-.261-1.216-.368c-.523-.107-1.2-.16-2.032-.16-.853 0-1.536.053-2.048.16-.512.107-.917.23-1.216.368-.299.139-.507.283-.624.432a5.97 5.97 0 0 0-.24.32c-.299.512-.47 1.205-.512 2.08a58.71 58.71 0 0 0-.064 2.848v.032c0 1.024.021 1.99.064 2.896.043.907.213 1.616.512 2.128.043.064.123.17.24.32.117.15.325.293.624.432s.704.261 1.216.368c.512.107 1.195.16 2.048.16.832 0 1.51-.053 2.032-.16.523-.107.928-.23 1.216-.368.288-.139.49-.283.608-.432a5.97 5.97 0 0 0 .24-.32c.299-.512.47-1.205.512-2.08.043-.875.064-1.813.064-2.816v-.064z" fill="#FDFFFC" fill-rule="evenodd"/></svg>
