<?xml version="1.0" encoding="UTF-8"?>
<svg width="78px" height="32px" viewBox="0 0 78 32" version="1.1" xmlns="http://www.w3.org/2000/svg" xmlns:xlink="http://www.w3.org/1999/xlink">
    <!-- Generator: Sketch 3.7.2 (28276) - http://www.bohemiancoding.com/sketch -->
    <title>proto</title>
    <desc>Created with Sketch.</desc>
    <defs></defs>
    <g id="Page-1" stroke="none" stroke-width="1" fill="none" fill-rule="evenodd">
        <g id="s" transform="translate(-116.000000, -140.000000)" fill="#FDFFFC">
            <path d="M117.015625,146.484375 L117.015625,145.09375 L121.125,145.09375 L121.359375,147.71875 C121.932295,146.781245 122.664058,146.057294 123.554688,145.546875 C124.445317,145.036456 125.489577,144.78125 126.6875,144.78125 C128.71876,144.78125 130.307286,145.591138 131.453125,147.210938 C132.598964,148.830737 133.171875,150.98957 133.171875,153.6875 L133.171875,154.015625 C133.171875,156.546888 132.598964,158.565097 131.453125,160.070312 C130.307286,161.575528 128.729177,162.328125 126.71875,162.328125 C125.531244,162.328125 124.492192,162.101565 123.601562,161.648438 C122.710933,161.19531 121.984378,160.552087 121.421875,159.71875 L121.421875,166.90625 L123.96875,167.109375 L123.96875,168.5 L117.015625,168.5 L117.015625,167.109375 L119.5625,166.90625 L119.5625,146.6875 L117.015625,146.484375 Z M131.296875,153.6875 C131.296875,151.541656 130.869796,149.791673 130.015625,148.4375 C129.161454,147.083327 127.911467,146.40625 126.265625,146.40625 C125.005202,146.40625 123.981775,146.705726 123.195312,147.304688 C122.40885,147.903649 121.81771,148.682287 121.421875,149.640625 L121.421875,157.765625 C121.84896,158.692713 122.466142,159.421872 123.273438,159.953125 C124.080733,160.484378 125.088536,160.75 126.296875,160.75 C127.9323,160.75 129.174475,160.135423 130.023438,158.90625 C130.8724,157.677077 131.296875,156.046885 131.296875,154.015625 L131.296875,153.6875 Z M140.265625,145.09375 L140.5,147.90625 L140.5,148.109375 C140.979169,147.067703 141.632808,146.252607 142.460938,145.664062 C143.289067,145.075518 144.270828,144.78125 145.40625,144.78125 C145.645835,144.78125 145.877603,144.799479 146.101562,144.835938 C146.325522,144.872396 146.510416,144.911458 146.65625,144.953125 L146.40625,146.703125 L145.015625,146.609375 C143.838536,146.609375 142.8724,146.940101 142.117188,147.601562 C141.361975,148.263024 140.822918,149.171869 140.5,150.328125 L140.5,160.421875 L143.046875,160.625 L143.046875,162 L136.09375,162 L136.09375,160.625 L138.640625,160.421875 L138.640625,146.6875 L136.09375,146.484375 L136.09375,145.09375 L138.640625,145.09375 L140.265625,145.09375 Z M149.078125,153.296875 C149.078125,150.807279 149.76041,148.765633 151.125,147.171875 C152.48959,145.578117 154.296864,144.78125 156.546875,144.78125 C158.807303,144.78125 160.619785,145.578117 161.984375,147.171875 C163.348965,148.765633 164.03125,150.807279 164.03125,153.296875 L164.03125,153.8125 C164.03125,156.312512 163.351569,158.356763 161.992188,159.945312 C160.632806,161.533862 158.828136,162.328125 156.578125,162.328125 C154.30728,162.328125 152.48959,161.533862 151.125,159.945312 C149.76041,158.356763 149.078125,156.312512 149.078125,153.8125 L149.078125,153.296875 Z M150.953125,153.8125 C150.953125,155.770843 151.447912,157.41666 152.4375,158.75 C153.427088,160.08334 154.807283,160.75 156.578125,160.75 C158.317717,160.75 159.682287,160.08334 160.671875,158.75 C161.661463,157.41666 162.15625,155.770843 162.15625,153.8125 L162.15625,153.296875 C162.15625,151.369782 161.658859,149.734382 160.664062,148.390625 C159.669266,147.046868 158.296884,146.375 156.546875,146.375 C154.796866,146.375 153.427088,147.046868 152.4375,148.390625 C151.447912,149.734382 150.953125,151.369782 150.953125,153.296875 L150.953125,153.8125 Z M171.375,140.765625 L171.375,145.09375 L175.09375,145.09375 L175.09375,146.625 L171.375,146.625 L171.375,157.640625 C171.375,158.744797 171.575519,159.528644 171.976562,159.992188 C172.377606,160.455731 172.911455,160.6875 173.578125,160.6875 C173.88021,160.6875 174.174478,160.674479 174.460938,160.648438 C174.747397,160.622396 175.078123,160.578125 175.453125,160.515625 L175.734375,161.90625 C175.421873,162.041667 175.041669,162.145833 174.59375,162.21875 C174.145831,162.291667 173.697919,162.328125 173.25,162.328125 C172.062494,162.328125 171.138024,161.953129 170.476562,161.203125 C169.815101,160.453121 169.484375,159.265633 169.484375,157.640625 L169.484375,146.625 L166.578125,146.625 L166.578125,145.09375 L169.484375,145.09375 L169.484375,140.765625 L171.375,140.765625 Z M178.53125,153.296875 C178.53125,150.807279 179.213535,148.765633 180.578125,147.171875 C181.942715,145.578117 183.749989,144.78125 186,144.78125 C188.260428,144.78125 190.07291,145.578117 191.4375,147.171875 C192.80209,148.765633 193.484375,150.807279 193.484375,153.296875 L193.484375,153.8125 C193.484375,156.312512 192.804694,158.356763 191.445312,159.945312 C190.085931,161.533862 188.281261,162.328125 186.03125,162.328125 C183.760405,162.328125 181.942715,161.533862 180.578125,159.945312 C179.213535,158.356763 178.53125,156.312512 178.53125,153.8125 L178.53125,153.296875 Z M180.40625,153.8125 C180.40625,155.770843 180.901037,157.41666 181.890625,158.75 C182.880213,160.08334 184.260408,160.75 186.03125,160.75 C187.770842,160.75 189.135412,160.08334 190.125,158.75 C191.114588,157.41666 191.609375,155.770843 191.609375,153.8125 L191.609375,153.296875 C191.609375,151.369782 191.111984,149.734382 190.117188,148.390625 C189.122391,147.046868 187.750009,146.375 186,146.375 C184.249991,146.375 182.880213,147.046868 181.890625,148.390625 C180.901037,149.734382 180.40625,151.369782 180.40625,153.296875 L180.40625,153.8125 Z" id="proto"></path>
        </g>
    </g>
</svg>