<?xml version="1.0" encoding="UTF-8"?>
<svg width="78px" height="32px" viewBox="0 0 78 32" version="1.1" xmlns="http://www.w3.org/2000/svg" xmlns:xlink="http://www.w3.org/1999/xlink">
    <!-- Generator: Sketch 3.7.2 (28276) - http://www.bohemiancoding.com/sketch -->
    <title>proto</title>
    <desc>Created with Sketch.</desc>
    <defs></defs>
    <g id="Page-1" stroke="none" stroke-width="1" fill="none" fill-rule="evenodd">
        <g id="Artboard" fill="#FDFFFC">
            <path d="M0,8.71875 L0,7.328125 L4.109375,7.328125 L4.34375,9.953125 C4.91666953,9.01562031 5.64843305,8.29166922 6.5390625,7.78125 C7.42969195,7.27083078 8.47395234,7.015625 9.671875,7.015625 C11.7031352,7.015625 13.2916609,7.82551273 14.4375,9.4453125 C15.5833391,11.0651123 16.15625,13.2239448 16.15625,15.921875 L16.15625,16.25 C16.15625,18.7812627 15.5833391,20.7994716 14.4375,22.3046875 C13.2916609,23.8099034 11.7135517,24.5625 9.703125,24.5625 C8.51561906,24.5625 7.47656695,24.3359398 6.5859375,23.8828125 C5.69530805,23.4296852 4.96875281,22.7864625 4.40625,21.953125 L4.40625,29.140625 L6.953125,29.34375 L6.953125,30.734375 L0,30.734375 L0,29.34375 L2.546875,29.140625 L2.546875,8.921875 L0,8.71875 Z M14.28125,15.921875 C14.28125,13.7760309 13.8541709,12.0260484 13,10.671875 C12.1458291,9.31770156 10.8958416,8.640625 9.25,8.640625 C7.98957703,8.640625 6.96614977,8.94010117 6.1796875,9.5390625 C5.39322523,10.1380238 4.80208531,10.9166619 4.40625,11.875 L4.40625,20 C4.83333547,20.927088 5.4505168,21.6562473 6.2578125,22.1875 C7.0651082,22.7187527 8.07291063,22.984375 9.28125,22.984375 C10.9166748,22.984375 12.1588499,22.3697978 13.0078125,21.140625 C13.8567751,19.9114522 14.28125,18.2812602 14.28125,16.25 L14.28125,15.921875 Z M23.25,7.328125 L23.484375,10.140625 L23.484375,10.34375 C23.9635441,9.30207813 24.6171834,8.48698211 25.4453125,7.8984375 C26.2734416,7.30989289 27.2552027,7.015625 28.390625,7.015625 C28.6302095,7.015625 28.861978,7.03385398 29.0859375,7.0703125 C29.309897,7.10677102 29.4947909,7.14583312 29.640625,7.1875 L29.390625,8.9375 L28,8.84375 C26.8229108,8.84375 25.8567746,9.17447586 25.1015625,9.8359375 C24.3463504,10.4973991 23.8072933,11.4062442 23.484375,12.5625 L23.484375,22.65625 L26.03125,22.859375 L26.03125,24.234375 L19.078125,24.234375 L19.078125,22.859375 L21.625,22.65625 L21.625,8.921875 L19.078125,8.71875 L19.078125,7.328125 L21.625,7.328125 L23.25,7.328125 Z M32.0625,15.53125 C32.0625,13.0416542 32.7447848,11.000008 34.109375,9.40625 C35.4739652,7.81249203 37.2812387,7.015625 39.53125,7.015625 C41.791678,7.015625 43.6041598,7.81249203 44.96875,9.40625 C46.3333402,11.000008 47.015625,13.0416542 47.015625,15.53125 L47.015625,16.046875 C47.015625,18.5468875 46.3359443,20.5911379 44.9765625,22.1796875 C43.6171807,23.7682371 41.8125113,24.5625 39.5625,24.5625 C37.2916553,24.5625 35.4739652,23.7682371 34.109375,22.1796875 C32.7447848,20.5911379 32.0625,18.5468875 32.0625,16.046875 L32.0625,15.53125 Z M33.9375,16.046875 C33.9375,18.0052181 34.4322867,19.651035 35.421875,20.984375 C36.4114633,22.317715 37.7916578,22.984375 39.5625,22.984375 C41.302092,22.984375 42.6666617,22.317715 43.65625,20.984375 C44.6458383,19.651035 45.140625,18.0052181 45.140625,16.046875 L45.140625,15.53125 C45.140625,13.604157 44.6432341,11.9687567 43.6484375,10.625 C42.6536409,9.28124328 41.2812588,8.609375 39.53125,8.609375 C37.7812412,8.609375 36.4114633,9.28124328 35.421875,10.625 C34.4322867,11.9687567 33.9375,13.604157 33.9375,15.53125 L33.9375,16.046875 Z M54.359375,3 L54.359375,7.328125 L58.078125,7.328125 L58.078125,8.859375 L54.359375,8.859375 L54.359375,19.875 C54.359375,20.9791722 54.5598938,21.7630185 54.9609375,22.2265625 C55.3619812,22.6901065 55.89583,22.921875 56.5625,22.921875 C56.8645848,22.921875 57.1588527,22.9088543 57.4453125,22.8828125 C57.7317723,22.8567707 58.0624981,22.8125003 58.4375,22.75 L58.71875,24.140625 C58.4062484,24.2760423 58.0260439,24.380208 57.578125,24.453125 C57.1302061,24.526042 56.6822939,24.5625 56.234375,24.5625 C55.0468691,24.5625 54.1223991,24.1875037 53.4609375,23.4375 C52.7994759,22.6874963 52.46875,21.5000081 52.46875,19.875 L52.46875,8.859375 L49.5625,8.859375 L49.5625,7.328125 L52.46875,7.328125 L52.46875,3 L54.359375,3 Z M61.515625,15.53125 C61.515625,13.0416542 62.1979098,11.000008 63.5625,9.40625 C64.9270902,7.81249203 66.7343637,7.015625 68.984375,7.015625 C71.244803,7.015625 73.0572848,7.81249203 74.421875,9.40625 C75.7864652,11.000008 76.46875,13.0416542 76.46875,15.53125 L76.46875,16.046875 C76.46875,18.5468875 75.7890693,20.5911379 74.4296875,22.1796875 C73.0703057,23.7682371 71.2656363,24.5625 69.015625,24.5625 C66.7447803,24.5625 64.9270902,23.7682371 63.5625,22.1796875 C62.1979098,20.5911379 61.515625,18.5468875 61.515625,16.046875 L61.515625,15.53125 Z M63.390625,16.046875 C63.390625,18.0052181 63.8854117,19.651035 64.875,20.984375 C65.8645883,22.317715 67.2447828,22.984375 69.015625,22.984375 C70.755217,22.984375 72.1197867,22.317715 73.109375,20.984375 C74.0989633,19.651035 74.59375,18.0052181 74.59375,16.046875 L74.59375,15.53125 C74.59375,13.604157 74.0963591,11.9687567 73.1015625,10.625 C72.1067659,9.28124328 70.7343838,8.609375 68.984375,8.609375 C67.2343662,8.609375 65.8645883,9.28124328 64.875,10.625 C63.8854117,11.9687567 63.390625,13.604157 63.390625,15.53125 L63.390625,16.046875 Z" id="proto"></path>
        </g>
    </g>
</svg>